<svg width="217" height="70" viewBox="0 0 217 70" fill="none" xmlns="http://www.w3.org/2000/svg">
<path fill-rule="evenodd" clip-rule="evenodd" d="M128.211 10.1701C128.193 10.2168 128.186 15.0208 128.196 20.8457L128.213 31.4363L135.2 31.4535L142.186 31.4706V29.3522V27.2337H137.607H133.028L133.011 18.6771L132.994 10.1205L130.619 10.1029C128.754 10.089 128.236 10.1035 128.211 10.1701ZM151.955 10.2382C151.923 10.3214 151.306 11.736 150.585 13.3818C149.864 15.0275 149.1 16.7826 148.887 17.2818C148.674 17.7811 147.781 19.8387 146.901 21.8543C145.373 25.3584 143.011 30.7894 142.815 31.2522L142.722 31.4716L145.228 31.4539L147.733 31.4363L148.157 30.3941C148.39 29.8208 148.767 28.8904 148.993 28.3264L149.406 27.3009H154.34H159.275L160.108 29.3686L160.94 31.4363L163.516 31.4539C164.932 31.4636 166.092 31.4499 166.092 31.4235C166.092 31.371 164.45 27.5079 162.254 22.3922C161.484 20.5986 159.984 17.096 158.921 14.609L156.989 10.0869H154.502H152.014L151.955 10.2382ZM168.359 10.1318C168.334 10.1564 168.314 14.9694 168.314 20.8272V31.478L174.189 31.4499C180.473 31.4198 180.556 31.4156 181.838 31.0646C183.868 30.5085 185.333 29.4279 186.053 27.9569C186.394 27.2587 186.506 26.7754 186.545 25.8327C186.602 24.4544 186.351 23.425 185.721 22.4524C185.041 21.4025 184.11 20.7208 182.793 20.3066L182.221 20.127L182.489 20.041C182.934 19.8988 183.746 19.4536 184.117 19.1487C184.842 18.5531 185.413 17.6651 185.669 16.7363C185.852 16.0669 185.833 14.7107 185.63 14.0542C184.922 11.7619 182.677 10.4071 179.169 10.1545C178.147 10.081 168.43 10.0605 168.359 10.1318ZM179.29 14.2402C180.272 14.5721 180.773 15.2209 180.824 16.2259C180.847 16.6791 180.825 16.8485 180.702 17.1755C180.521 17.6545 180.119 18.109 179.681 18.3307C179.003 18.674 178.793 18.6939 175.875 18.6939H173.162V16.3701V14.0463L176.007 14.0693C178.729 14.0913 178.871 14.0987 179.29 14.2402ZM154.589 15.7185C154.688 15.9681 155.423 17.7888 156.222 19.7644C157.02 21.7401 157.663 23.3668 157.651 23.3793C157.638 23.3919 156.142 23.3943 154.326 23.3847L151.025 23.3673L151.71 21.6862C152.087 20.7616 152.829 18.9386 153.36 17.6349C153.891 16.3312 154.344 15.2646 154.367 15.2646C154.39 15.2646 154.49 15.4688 154.589 15.7185ZM179.458 22.6169C180.924 23.0323 181.644 23.8863 181.565 25.1172C181.508 25.9973 181.062 26.635 180.211 27.0509C179.395 27.4499 179.311 27.4589 176.108 27.4863L173.162 27.5115V24.9805V22.4495L176.108 22.476C178.625 22.4986 179.113 22.5191 179.458 22.6169ZM95.8567 41.5623C93.0926 41.9177 91.084 43.0692 90.0027 44.9184C89.4789 45.8144 89.2569 46.7032 89.2583 47.8998C89.26 49.3281 89.5812 50.3264 90.3433 51.2725C91.4014 52.5859 92.5679 53.1821 96.08 54.2048C99.1711 55.105 99.974 55.5214 100.475 56.4841C100.661 56.841 100.646 57.6343 100.447 58.0432C100.173 58.6053 99.6334 58.9922 98.8156 59.2136C98.1728 59.3877 96.7727 59.3737 95.8804 59.1845C94.0555 58.7973 91.9156 57.7764 90.4359 56.5869C90.2137 56.4082 89.9965 56.2348 89.9534 56.2015C89.8975 56.1583 89.6014 56.6969 88.9264 58.0694C88.4048 59.1301 87.978 60.0236 87.978 60.055C87.978 60.0864 88.1371 60.2385 88.3316 60.3931C90.3136 61.9688 93.2449 63.1365 95.919 63.4156C96.8652 63.5143 98.8289 63.4606 99.6258 63.3142C101.086 63.0458 102.603 62.4138 103.5 61.6997C104.475 60.9237 105.234 59.8153 105.555 58.7004C105.737 58.0696 105.812 56.531 105.695 55.8398C105.489 54.626 105.005 53.7144 104.125 52.8806C103.063 51.8746 101.876 51.3144 98.9206 50.4231C97.3356 49.9452 96.4852 49.6367 95.7832 49.2853C94.8293 48.8078 94.51 48.3945 94.4569 47.5688C94.4068 46.7881 94.6586 46.3339 95.3265 46.0007C95.925 45.702 96.3585 45.6357 97.4392 45.6777C98.1759 45.7063 98.5585 45.7586 99.19 45.9172C100.658 46.2856 102.165 46.8868 103.327 47.5664C103.561 47.7034 103.764 47.8038 103.778 47.7896C103.828 47.7393 105.621 43.8975 105.621 43.8398C105.621 43.7727 104.933 43.3636 104.24 43.0189C102.969 42.386 100.941 41.7869 99.4054 41.5907C98.5537 41.4818 96.6047 41.4663 95.8567 41.5623ZM117.141 41.659C114.596 42.0449 112.515 43.0751 110.767 44.8151C109.148 46.427 108.154 48.332 107.77 50.5593C107.58 51.6628 107.583 53.2886 107.776 54.4488C108.413 58.2661 110.935 61.3523 114.601 62.8015C115.959 63.3385 117.479 63.5788 119.156 63.5215C120.856 63.4634 122.04 63.167 123.661 62.3941C125.046 61.7336 126.077 61.0451 127.028 60.1451L127.466 59.7303L127.275 59.5025C127.169 59.3772 126.535 58.6785 125.866 57.95L124.649 56.6253L124.377 56.86C123.132 57.9362 121.786 58.6633 120.454 58.9795C119.949 59.0994 119.716 59.1153 118.853 59.0888C117.77 59.0555 117.409 58.9829 116.554 58.6274C112.853 57.0889 111.42 52.2757 113.615 48.758C114.295 47.6695 115.52 46.6393 116.647 46.208C117.937 45.715 119.347 45.6218 120.584 45.9475C121.861 46.2836 122.992 46.9402 124.045 47.9578L124.658 48.5498L124.988 48.1296C125.169 47.8986 125.797 47.124 126.383 46.4082C127.616 44.9008 127.59 45.1544 126.597 44.3245C125.09 43.0656 123.259 42.1812 121.277 41.7556C120.393 41.5658 118.108 41.5124 117.141 41.659ZM162.455 41.6553C160.762 41.9043 159.311 42.4167 157.977 43.2355C155.728 44.6164 153.973 46.8915 153.256 49.3555C152.875 50.6646 152.734 52.3797 152.89 53.8039C153.296 57.5036 155.506 60.6267 158.92 62.3229C160.586 63.1506 162.315 63.5419 164.307 63.5419C166.393 63.5419 168.077 63.1427 169.863 62.2249C171.841 61.2077 173.321 59.8011 174.412 57.9007C175.267 56.4114 175.694 54.8286 175.766 52.8866C175.886 49.6633 174.77 46.8852 172.466 44.6697C170.759 43.0275 168.622 42.0088 166.15 41.6579C165.301 41.5373 163.266 41.5359 162.455 41.6553ZM186.448 41.6571C182.607 42.2404 179.491 44.4889 177.915 47.8155C177.32 49.0694 177.048 50.1042 176.919 51.5922C176.743 53.6229 177.121 55.6553 178 57.404C179.129 59.6512 180.818 61.2929 183.131 62.3923C184.825 63.1975 186.399 63.5452 188.345 63.544C190.32 63.5427 192.016 63.1664 193.667 62.3631C197.108 60.6889 199.308 57.614 199.767 53.835C199.879 52.9081 199.809 51.1343 199.625 50.2642C198.702 45.8871 195.376 42.6688 190.831 41.7531C189.887 41.5631 187.423 41.5091 186.448 41.6571ZM130.334 52.5504V63.2083H132.759H135.183V59.0057V54.803H139.998H144.812V59.0057V63.2083H147.237H149.661V52.5504V41.8925H147.237H144.812V46.3305V50.7685H139.998H135.183V46.3305V41.8925H132.759H130.334V52.5504ZM202.993 52.5504V63.2083H209.997H217V61.0902V58.972H212.421H207.842V50.4323V41.8925H205.418H202.993V52.5504ZM165.283 45.8236C166.732 46.0443 167.914 46.6604 168.923 47.7213C170.327 49.1974 170.975 51.0696 170.8 53.1443C170.77 53.4894 170.683 54.0266 170.604 54.3378C170.419 55.0761 169.836 56.2536 169.344 56.8851C168.394 58.1024 166.888 59.0032 165.402 59.2426C164.61 59.3701 163.371 59.2969 162.637 59.0793C160.446 58.4292 158.705 56.6658 158.038 54.4189C157.82 53.6853 157.741 52.2176 157.874 51.3907C158.348 48.4575 160.67 46.1733 163.564 45.7954C164.202 45.7121 164.594 45.7186 165.283 45.8236ZM189.918 45.9282C191.006 46.1877 192.045 46.782 192.876 47.6199C193.471 48.2203 193.763 48.6195 194.12 49.3228C194.662 50.3908 194.851 51.2272 194.851 52.5554C194.852 54.4745 194.222 56.0752 192.96 57.3603C191.651 58.6931 190.211 59.3083 188.399 59.3083C186.641 59.3083 185.159 58.666 183.835 57.3308C182.507 55.9907 181.849 54.3953 181.849 52.5168C181.849 48.1475 185.776 44.9405 189.918 45.9282Z" fill="white"/>
<path fill-rule="evenodd" clip-rule="evenodd" d="M112.894 7.79266C113.174 6.60745 114.102 5.71379 115.25 5.52437C115.757 5.44092 115.887 5.44005 116.417 5.51664C117.016 5.60305 117.556 5.86301 117.993 6.27534C118.644 6.88973 118.912 7.56397 118.904 8.57435C118.893 10.1178 118.039 11.2289 116.605 11.5662C116.105 11.684 115.185 11.6208 114.695 11.4348C113.963 11.1573 113.324 10.5136 113.024 9.75109C112.839 9.28039 112.774 8.30135 112.894 7.79266ZM92.7594 14.3572C94.1413 11.1396 95.3015 8.46898 95.3375 8.42238C95.3888 8.35595 96.0605 8.34142 98.4413 8.35514L101.48 8.37262L102.83 11.6003C103.573 13.3754 104.69 16.0382 105.313 17.5176C108.854 25.932 110.114 28.9326 110.91 30.8483L111.001 31.0669L107.823 31.0667L104.645 31.0665L103.877 29.0826L103.11 27.0987L98.1872 27.116L93.2642 27.1332L92.4877 29.0832L91.7113 31.0333L88.6582 31.0507C85.7708 31.0673 85.607 31.0618 85.64 30.9499C85.6591 30.8848 86.7035 28.4411 87.9608 25.5194C89.2181 22.5977 91.3774 17.5747 92.7594 14.3572ZM113.074 13.5608C113.049 13.5858 113.028 17.5349 113.028 22.3366V31.0669H115.924H118.82L118.803 22.3086L118.786 13.5503L115.953 13.5327C114.394 13.5231 113.099 13.5357 113.074 13.5608ZM99.3814 17.4202C99.9543 18.9164 100.623 20.6539 100.867 21.2814C101.111 21.9089 101.311 22.4461 101.311 22.475C101.311 22.5039 98.2136 22.5275 98.2136 22.5275C98.2136 22.5275 95.116 22.5035 95.116 22.474C95.116 22.4056 95.8029 20.6442 97.6752 15.9113C98.0485 14.9678 98.2489 14.5382 98.2853 14.6032C98.3152 14.6564 98.8084 15.9241 99.3814 17.4202Z" fill="url(#paint0_linear_202_8160)"/>
<path d="M58.4836 4.03534V2.01767V0L63.955 0.0172128L69.4263 0.0344255L69.4432 16.5759L69.4602 33.1173L72.3722 36.0257L75.2842 38.9341L72.2711 41.9434L69.2579 44.9528V57.4764V70H63.8708H58.4836V67.9827V65.9655H61.8843H65.2849V54.6187V43.2719L67.4556 41.1035L69.6265 38.9351L67.523 36.8308L65.4196 34.7265V19.3809V4.03534H61.9516H58.4836Z" fill="url(#paint1_linear_202_8160)"/>
<path d="M6.02632 25.0477V12.5241V0.000488281H11.4135H16.8006V2.01776V4.03502H13.4H9.99933V15.3818V26.7285L7.82805 28.8974L5.65676 31.0664L7.76071 33.1681L9.86465 35.2699V50.6175V65.9651H13.3326H16.8006V67.9824V69.9997H11.3461H5.89164V53.4752V36.9507L2.94582 34.0085L0 31.0664L3.01316 28.0571L6.02632 25.0477Z" fill="url(#paint2_linear_202_8160)"/>
<defs>
<linearGradient id="paint0_linear_202_8160" x1="102.271" y1="5.46045" x2="102.271" y2="31.0669" gradientUnits="userSpaceOnUse">
<stop stop-color="#FF1D25"/>
<stop offset="1" stop-color="#FFD500"/>
</linearGradient>
<linearGradient id="paint1_linear_202_8160" x1="66.8839" y1="0" x2="66.8839" y2="70" gradientUnits="userSpaceOnUse">
<stop stop-color="#FFD500"/>
<stop offset="1" stop-color="#FF1D25"/>
</linearGradient>
<linearGradient id="paint2_linear_202_8160" x1="8.4003" y1="0.000488281" x2="8.4003" y2="69.9997" gradientUnits="userSpaceOnUse">
<stop stop-color="#FF1D25"/>
<stop offset="1" stop-color="#FFD500"/>
</linearGradient>
</defs>
</svg>
